<mxfile host="app.diagrams.net" modified="2023-11-20T10:19:15.581Z" agent="Mozilla/5.0 (Windows NT 10.0; Win64; x64) AppleWebKit/537.36 (KHTML, like Gecko) Chrome/119.0.0.0 Safari/537.36 Edg/119.0.0.0" etag="7UNL_-0yhK9r-YfYzY7k" version="22.1.3" type="github">
  <diagram name="第 1 页" id="7luL-yr_JmEK_5rlE7Dp">
    <mxGraphModel dx="1386" dy="793" grid="1" gridSize="10" guides="1" tooltips="1" connect="1" arrows="1" fold="1" page="1" pageScale="1" pageWidth="827" pageHeight="1169" math="0" shadow="0">
      <root>
        <mxCell id="0" />
        <mxCell id="1" parent="0" />
        <mxCell id="iUIjQHhloSSATbXeIJ9S-1" value="&lt;font style=&quot;font-size: 18px;&quot;&gt;cifar10图片数据集&lt;br&gt;6万张图片&lt;br&gt;&lt;/font&gt;" style="text;html=1;strokeColor=none;fillColor=none;align=center;verticalAlign=middle;whiteSpace=wrap;rounded=0;" vertex="1" parent="1">
          <mxGeometry x="40" y="120" width="230" height="80" as="geometry" />
        </mxCell>
        <mxCell id="iUIjQHhloSSATbXeIJ9S-2" value="&lt;font style=&quot;font-size: 18px;&quot;&gt;&lt;pre style=&quot;background-color: rgb(255, 255, 255); font-family: &amp;quot;JetBrains Mono&amp;quot;; font-size: 13.5pt;&quot;&gt;class &lt;span style=&quot;color:#0000ff;font-weight:bold;&quot;&gt;DataHelper&lt;/span&gt;:&lt;/pre&gt;&lt;pre style=&quot;background-color: rgb(255, 255, 255); font-family: &amp;quot;JetBrains Mono&amp;quot;; font-size: 13.5pt;&quot;&gt;&lt;pre style=&quot;font-family: &amp;quot;JetBrains Mono&amp;quot;; font-size: 13.5pt;&quot;&gt;def &lt;span style=&quot;color:#b200b2;&quot;&gt;__init__&lt;/span&gt;(&lt;span style=&quot;color:#94558d;&quot;&gt;self&lt;/span&gt;, root_dir, task_size=&lt;span style=&quot;color:#0000ff;&quot;&gt;200&lt;/span&gt;, task_ratio=&lt;span style=&quot;color:#0000ff;&quot;&gt;0.7&lt;/span&gt;, test_ratio=&lt;span style=&quot;color:#0000ff;&quot;&gt;0.5&lt;/span&gt;):&lt;/pre&gt;&lt;/pre&gt;&lt;/font&gt;&lt;blockquote style=&quot;margin: 0 0 0 40px; border: none; padding: 0px;&quot;&gt;&lt;font style=&quot;font-size: 18px;&quot;&gt;&lt;pre style=&quot;background-color: rgb(255, 255, 255); font-family: &amp;quot;JetBrains Mono&amp;quot;; font-size: 13.5pt;&quot;&gt;&lt;pre style=&quot;font-family: &amp;quot;JetBrains Mono&amp;quot;; font-size: 13.5pt;&quot;&gt;&lt;pre style=&quot;border-color: var(--border-color); font-size: 13.5pt; font-family: &amp;quot;JetBrains Mono&amp;quot;;&quot;&gt;task_size：每个任务包含的图片数量&lt;/pre&gt;&lt;/pre&gt;&lt;/pre&gt;&lt;/font&gt;&lt;font style=&quot;font-size: 18px;&quot;&gt;&lt;pre style=&quot;background-color: rgb(255, 255, 255); font-family: &amp;quot;JetBrains Mono&amp;quot;; font-size: 13.5pt;&quot;&gt;&lt;pre style=&quot;font-family: &amp;quot;JetBrains Mono&amp;quot;; font-size: 13.5pt;&quot;&gt;&lt;pre style=&quot;border-color: var(--border-color); font-size: 13.5pt; font-family: &amp;quot;JetBrains Mono&amp;quot;;&quot;&gt;task_ratio：训练任务在总任务中的占比&lt;/pre&gt;&lt;/pre&gt;&lt;/pre&gt;&lt;/font&gt;&lt;font style=&quot;font-size: 18px;&quot;&gt;&lt;pre style=&quot;background-color: rgb(255, 255, 255); font-family: &amp;quot;JetBrains Mono&amp;quot;; font-size: 13.5pt;&quot;&gt;&lt;pre style=&quot;font-family: &amp;quot;JetBrains Mono&amp;quot;; font-size: 13.5pt;&quot;&gt;&lt;pre style=&quot;border-color: var(--border-color); font-size: 13.5pt; font-family: &amp;quot;JetBrains Mono&amp;quot;;&quot;&gt;test_ratio：每个任务中query set图片数目占比&lt;/pre&gt;&lt;/pre&gt;&lt;/pre&gt;&lt;/font&gt;&lt;/blockquote&gt;&lt;font style=&quot;font-size: 18px;&quot;&gt;&lt;pre style=&quot;background-color: rgb(255, 255, 255); font-family: &amp;quot;JetBrains Mono&amp;quot;; font-size: 13.5pt;&quot;&gt;&lt;pre style=&quot;font-family: &amp;quot;JetBrains Mono&amp;quot;; font-size: 13.5pt;&quot;&gt;&lt;pre style=&quot;border-color: var(--border-color); font-size: 13.5pt; font-family: &amp;quot;JetBrains Mono&amp;quot;;&quot;&gt;&lt;pre style=&quot;font-family: &amp;quot;JetBrains Mono&amp;quot;; font-size: 13.5pt;&quot;&gt;def &lt;span style=&quot;color:#0000ff;&quot;&gt;get_imgs&lt;/span&gt;(&lt;span style=&quot;color:#94558d;&quot;&gt;self&lt;/span&gt;):&lt;/pre&gt;&lt;pre style=&quot;font-family: &amp;quot;JetBrains Mono&amp;quot;; font-size: 13.5pt;&quot;&gt;&lt;span style=&quot;&quot;&gt;&lt;span style=&quot;&quot;&gt;&amp;nbsp;&amp;nbsp;&amp;nbsp;&amp;nbsp;&lt;span style=&quot;&quot;&gt;&lt;span style=&quot;white-space: pre;&quot;&gt;&amp;nbsp;&amp;nbsp;&amp;nbsp;&amp;nbsp;&lt;/span&gt;&lt;/span&gt;&lt;/span&gt;&lt;/span&gt;return imgs_train_normal, labels_train_normal, imgs_test_normal, labels_test_normal&lt;/pre&gt;&lt;pre style=&quot;font-family: &amp;quot;JetBrains Mono&amp;quot;; font-size: 13.5pt;&quot;&gt;&lt;span style=&quot;&quot;&gt;&lt;span style=&quot;white-space: pre;&quot;&gt;&amp;nbsp;&amp;nbsp;&amp;nbsp;&amp;nbsp;&lt;span style=&quot;white-space: pre;&quot;&gt;&#x9;&lt;/span&gt;&lt;/span&gt;&lt;/span&gt;返回 （训练样本，训练样本标签，测试样本，测试样本标签）&lt;/pre&gt;&lt;pre style=&quot;font-family: &amp;quot;JetBrains Mono&amp;quot;; font-size: 13.5pt;&quot;&gt;def &lt;span style=&quot;color:#0000ff;&quot;&gt;get_task&lt;/span&gt;(&lt;span style=&quot;color:#94558d;&quot;&gt;self&lt;/span&gt;, mode=&lt;span style=&quot;color:#008000;font-weight:bold;&quot;&gt;None&lt;/span&gt;):&lt;/pre&gt;&lt;pre style=&quot;font-family: &amp;quot;JetBrains Mono&amp;quot;; font-size: 13.5pt;&quot;&gt;&lt;span style=&quot;white-space: pre;&quot;&gt;&#x9;&lt;/span&gt;mode：if mode == &quot;test&quot;，那么测试任务只包含spt，而qry为一个大的测试集&lt;/pre&gt;&lt;pre style=&quot;font-family: &amp;quot;JetBrains Mono&amp;quot;; font-size: 13.5pt;&quot;&gt;&lt;span style=&quot;white-space: pre;&quot;&gt;&#x9;&lt;/span&gt;return imgs_list_train, labels_list_train, imgs_list_test, labels_list_test&lt;/pre&gt;&lt;pre style=&quot;font-family: &amp;quot;JetBrains Mono&amp;quot;; font-size: 13.5pt;&quot;&gt;&lt;span style=&quot;white-space: pre;&quot;&gt;&#x9;&lt;/span&gt;返回 （训练任务，训练任务标签，测试任务，测试任务标签）&lt;/pre&gt;&lt;/pre&gt;&lt;/pre&gt;&lt;/pre&gt;&lt;/font&gt;" style="text;html=1;strokeColor=none;fillColor=none;align=left;verticalAlign=middle;whiteSpace=wrap;rounded=0;" vertex="1" parent="1">
          <mxGeometry x="40" y="170" width="940" height="550" as="geometry" />
        </mxCell>
        <mxCell id="iUIjQHhloSSATbXeIJ9S-3" value="&lt;font style=&quot;font-size: 18px;&quot;&gt;003_cifar100.py&lt;/font&gt;" style="rounded=0;whiteSpace=wrap;html=1;fillColor=#fff2cc;strokeColor=#d6b656;fontSize=16;" vertex="1" parent="1">
          <mxGeometry x="80" y="760" width="250" height="30" as="geometry" />
        </mxCell>
        <mxCell id="iUIjQHhloSSATbXeIJ9S-4" value="&lt;font style=&quot;font-size: 16px;&quot;&gt;代码不完整&lt;/font&gt;" style="rounded=0;whiteSpace=wrap;html=1;fillColor=#f8cecc;strokeColor=#b85450;fontSize=16;" vertex="1" parent="1">
          <mxGeometry x="80" y="790" width="250" height="30" as="geometry" />
        </mxCell>
        <mxCell id="iUIjQHhloSSATbXeIJ9S-5" value="&lt;font style=&quot;font-size: 16px;&quot;&gt;发现cifar100就是固定的一百类分类任务，无法采样成n way任务&lt;/font&gt;" style="rounded=0;whiteSpace=wrap;html=1;align=left;fontSize=16;" vertex="1" parent="1">
          <mxGeometry x="80" y="850" width="250" height="80" as="geometry" />
        </mxCell>
        <mxCell id="iUIjQHhloSSATbXeIJ9S-6" value="&lt;font style=&quot;font-size: 16px;&quot;&gt;从此刻发现了自己以前尝试把数据集划分为n way k shot任务的想法是错误的，挽救了错误的局面&lt;br style=&quot;font-size: 16px;&quot;&gt;&lt;/font&gt;" style="rounded=0;whiteSpace=wrap;html=1;fontSize=16;" vertex="1" parent="1">
          <mxGeometry x="80" y="960" width="250" height="80" as="geometry" />
        </mxCell>
        <mxCell id="iUIjQHhloSSATbXeIJ9S-7" value="&lt;font style=&quot;font-size: 18px;&quot;&gt;004_ominiglot_l2d.py&lt;/font&gt;" style="rounded=0;whiteSpace=wrap;html=1;fillColor=#fff2cc;strokeColor=#d6b656;" vertex="1" parent="1">
          <mxGeometry x="360" y="760" width="250" height="30" as="geometry" />
        </mxCell>
        <mxCell id="iUIjQHhloSSATbXeIJ9S-8" value="&lt;font style=&quot;font-size: 16px;&quot;&gt;实验中止原因&lt;/font&gt;" style="rounded=0;whiteSpace=wrap;html=1;fillColor=#f5f5f5;fontColor=#333333;strokeColor=#666666;fontSize=16;" vertex="1" parent="1">
          <mxGeometry x="80" y="820" width="250" height="30" as="geometry" />
        </mxCell>
        <mxCell id="iUIjQHhloSSATbXeIJ9S-9" value="&lt;font style=&quot;font-size: 16px;&quot;&gt;实验意义&lt;/font&gt;" style="rounded=0;whiteSpace=wrap;html=1;fillColor=#f5f5f5;fontColor=#333333;strokeColor=#666666;fontSize=16;" vertex="1" parent="1">
          <mxGeometry x="80" y="930" width="250" height="30" as="geometry" />
        </mxCell>
        <mxCell id="iUIjQHhloSSATbXeIJ9S-10" value="&lt;font style=&quot;font-size: 16px;&quot;&gt;代码完整&lt;/font&gt;" style="rounded=0;whiteSpace=wrap;html=1;fillColor=#d5e8d4;strokeColor=#82b366;fontSize=16;" vertex="1" parent="1">
          <mxGeometry x="360" y="790" width="250" height="30" as="geometry" />
        </mxCell>
        <mxCell id="iUIjQHhloSSATbXeIJ9S-11" value="&lt;font style=&quot;font-size: 16px;&quot;&gt;实验意义&lt;/font&gt;" style="rounded=0;whiteSpace=wrap;html=1;fillColor=#f5f5f5;fontColor=#333333;strokeColor=#666666;fontSize=16;" vertex="1" parent="1">
          <mxGeometry x="360" y="820" width="250" height="30" as="geometry" />
        </mxCell>
        <mxCell id="iUIjQHhloSSATbXeIJ9S-12" value="&lt;font style=&quot;font-size: 16px;&quot;&gt;验证自己编写的l2d元学习训练代码是正确的&lt;br style=&quot;font-size: 16px;&quot;&gt;&lt;/font&gt;" style="rounded=0;whiteSpace=wrap;html=1;fontSize=16;" vertex="1" parent="1">
          <mxGeometry x="360" y="850" width="250" height="80" as="geometry" />
        </mxCell>
        <mxCell id="iUIjQHhloSSATbXeIJ9S-14" value="&lt;span style=&quot;font-size: 18px;&quot;&gt;meta_learner.py&lt;/span&gt;" style="rounded=0;whiteSpace=wrap;html=1;fillColor=#fff2cc;strokeColor=#d6b656;" vertex="1" parent="1">
          <mxGeometry x="660" y="760" width="250" height="30" as="geometry" />
        </mxCell>
      </root>
    </mxGraphModel>
  </diagram>
</mxfile>
